PathFileType	4	(X/Y/Z)	C:\Users\Biomechanik\SynologyDrive\AlexP\Athlete_03\Athlete_3_25_03_31\Deadlift_bw_02\marker_experimental.trc
DataRate	CameraRate	NumFrames	NumMarkers	Units	OrigDataRate	OrigDataStartFrame	OrigNumFrames
200.000000	200.000000	4	55	mm	200.000000	1127	1804
Frame#	Time	BL			BR			GLAB			RFHD			LFHD			C7			T6			SPINMOL			SPINM2			SPINM3			T12			BELTOL			BELT2			BELT3			SACROL			SACR2			SACR3			LTHOL			LTH2			LTH3			LSHAOL			LSHA2			LSHA3			LHEE			LTOE			LM5			RTHOL			RTH2			RTH3			RSHAOL			RSHA2			RSHA3			RHEE			RTOE			RM5			STRN			XIPH			LACR			LUAOL			LUA2			LUA3			LLAOL			LLA2			LLA3			LWRR			LWRU			RACR			RUAOL			RUA2			RUA3			RLAOL			RLA2			RLA3			RWRR			RWRU			
		X1	Y1	Z1	X2	Y2	Z2	X3	Y3	Z3	X4	Y4	Z4	X5	Y5	Z5	X6	Y6	Z6	X7	Y7	Z7	X8	Y8	Z8	X9	Y9	Z9	X10	Y10	Z10	X11	Y11	Z11	X12	Y12	Z12	X13	Y13	Z13	X14	Y14	Z14	X15	Y15	Z15	X16	Y16	Z16	X17	Y17	Z17	X18	Y18	Z18	X19	Y19	Z19	X20	Y20	Z20	X21	Y21	Z21	X22	Y22	Z22	X23	Y23	Z23	X24	Y24	Z24	X25	Y25	Z25	X26	Y26	Z26	X27	Y27	Z27	X28	Y28	Z28	X29	Y29	Z29	X30	Y30	Z30	X31	Y31	Z31	X32	Y32	Z32	X33	Y33	Z33	X34	Y34	Z34	X35	Y35	Z35	X36	Y36	Z36	X37	Y37	Z37	X38	Y38	Z38	X39	Y39	Z39	X40	Y40	Z40	X41	Y41	Z41	X42	Y42	Z42	X43	Y43	Z43	X44	Y44	Z44	X45	Y45	Z45	X46	Y46	Z46	X47	Y47	Z47	X48	Y48	Z48	X49	Y49	Z49	X50	Y50	Z50	X51	Y51	Z51	X52	Y52	Z52	X53	Y53	Z53	X54	Y54	Z54	X55	Y55	Z55	

1128	5.635	1214.2421875	39.25576019287124	-2269.24267578125	1226.856079101562	29.81859397888185	-248.8416900634766	322.7298889160156	1630.393310546875	-1198.217651367188	269.2855834960938	1648.580932617188	-1135.222290039062	275.2548522949219	1645.763061523438	-1270.197875976562	119.2737121582031	1440.067016601562	-1205.6328125	87.04542541503906	1262.104614257812	-1213.608154296875	87.42462158203125	1227.212768554688	-1235.696044921875	83.46906280517578	1217.269897460938	-1186.305053710938	97.19200134277344	1163.119506835938	-1222.229858398438	111.4729385375977	1110.099975585938	-1220.524658203125	86.91657257080078	1086.2490234375	-1236.095092773438	87.48030853271484	1082.4833984375	-1185.990112304688	80.0478515625	1023.205627441406	-1216.226684570312	81.37492370605469	961.3263549804689	-1239.287475585938	82.80717468261719	957.9782714843751	-1187.92041015625	58.84995651245117	903.1808471679689	-1216.244750976562	171.0924682617188	684.6593017578126	-1405.014282226562	120.482536315918	632.1634521484376	-1372.596557617188	167.0126342773438	624.9608154296876	-1390.669555664062	143.1226959228516	328.0476684570314	-1405.447021484375	94.47965240478516	265.6451416015626	-1394.761474609375	143.9895172119141	266.241668701172	-1402.087646484375	76.57901000976562	69.05993652343759	-1319.271850585938	293.5723571777344	48.59649658203133	-1332.286010742188	242.3091278076172	28.90067672729501	-1431.726806640625	157.4844207763672	697.7955322265626	-1027.402709960938	211.1652221679688	639.8707275390626	-1016.098937988281	164.6077575683594	636.5785522460939	-1033.524658203125	126.774299621582	345.5896911621094	-1018.444458007812	158.5505676269531	273.6699218750001	-1013.380615234375	112.7387237548828	285.1015930175782	-1028.39111328125	75.85337829589844	62.49396896362312	-1114.652587890625	289.429931640625	48.13275909423835	-1102.09375	237.0221862792969	38.660629272461	-1002.549499511719	299.6245727539062	1362.10693359375	-1208.289428710938	344.8736877441406	1229.1064453125	-1208.3173828125	218.4918975830078	1400.663696289062	-1385.709228515625	267.9714660644531	1245.876708984375	-1486.418212890625	273.5863342285156	1184.51708984375	-1509.531494140625	305.0888671875	1195.030517578125	-1469.300537109375	329.2799987792969	980.6364746093751	-1503.535888671875	291.6725158691406	914.0166625976564	-1524.291748046875	335.7857666015625	919.0562133789064	-1500.715209960938	350.2636108398438	811.1860351562501	-1490.638916015625	338.7575988769531	820.0852661132814	-1413.6357421875	227.8323059082031	1399.178344726562	-1034.743286132812	255.4420928955078	1241.894165039062	-939.6080932617186	287.7498474121094	1184.074584960938	-946.5726928710936	245.0829620361328	1180.615966796875	-915.5360107421874	301.8418884277344	959.26611328125	-924.5338745117186	360.9893188476562	908.1164550781251	-938.5833129882812	312.5723571777344	897.6601562500001	-932.0879516601562	349.3318481445312	813.6789550781251	-950.6063842773438	345.2977294921875	811.2073974609376	-1029.220336914062	
1129	5.64	1214.242065429688	39.25597763061538	-2269.241943359375	1226.85595703125	29.81871604919435	-248.8405914306641	322.8406066894531	1630.363403320312	-1198.240966796875	269.4029235839844	1648.57763671875	-1135.242797851562	275.3711547851562	1645.759643554688	-1270.227172851562	119.3285751342773	1440.113037109375	-1205.638916015625	87.03843688964844	1262.158325195312	-1213.603149414062	87.40134429931641	1227.263305664062	-1235.689331054688	83.4425048828125	1217.32568359375	-1186.295532226562	97.14980316162109	1163.170288085938	-1222.219116210938	111.4133377075195	1110.135009765625	-1220.504272460938	86.83570098876953	1086.28515625	-1236.062255859375	87.41645812988281	1082.523071289062	-1185.965698242188	79.96976470947266	1023.242919921875	-1216.191284179688	81.2921142578125	961.3225708007814	-1239.249633789062	82.717529296875	957.9783935546876	-1187.88623046875	58.77753067016602	903.1680297851564	-1216.207763671875	171.0361022949219	684.6705322265626	-1405.011108398438	120.390251159668	632.1480102539064	-1372.692749023438	166.9602203369141	624.9648437500001	-1390.677001953125	143.1415557861328	328.0432434082032	-1405.46142578125	94.49871063232422	265.6378784179689	-1394.786010742188	144.00830078125	266.238250732422	-1402.09814453125	76.57843017578125	69.06462097167977	-1319.2734375	293.57421875	48.59571456909188	-1332.279418945312	242.308349609375	28.90666389465341	-1431.724365234375	157.4762573242188	697.7854614257814	-1027.387817382812	211.1785736083984	639.8774414062501	-1016.08544921875	164.6204223632812	636.5671997070314	-1033.509765625	126.8257522583008	345.5843811035157	-1018.438659667969	158.5953521728516	273.6604003906251	-1013.378479003906	112.7809753417969	285.0972900390626	-1028.388061523438	75.85842132568359	62.50561141967781	-1114.660888671875	289.4345397949219	48.12990570068366	-1102.095458984375	237.0266265869141	38.6622390747071	-1002.550231933594	299.6443481445312	1362.0966796875	-1208.308959960938	344.8516845703125	1229.095092773438	-1208.326171875	218.5046234130859	1400.657348632812	-1385.726806640625	267.9395446777344	1245.833251953125	-1486.408569335938	273.6346130371094	1184.490478515625	-1509.652221679688	305.0697021484375	1194.990356445312	-1469.2705078125	329.1933288574219	980.5795898437501	-1503.500366210938	291.5673217773438	913.9694824218751	-1524.233154296875	335.6849060058594	919.0147705078126	-1500.67822265625	350.1423034667969	811.1328735351564	-1490.5810546875	338.6718139648438	820.0507812500001	-1413.547729492188	227.8887939453125	1399.20751953125	-1034.758178710938	255.4770812988281	1241.91796875	-939.6065673828124	287.7762756347656	1184.09326171875	-946.5595703124999	245.1060638427734	1180.644653320312	-915.5426025390624	301.7912292480469	959.272705078125	-924.5407714843749	360.9359130859375	908.1409912109376	-938.60791015625	312.50390625	897.6630249023439	-932.0952758789062	349.2295227050781	813.6691894531251	-950.6204223632812	345.1782836914062	811.1935424804689	-1029.229858398438	
1130	5.645	1214.241943359375	39.25610733032241	-2269.2412109375	1226.85595703125	29.81879806518556	-248.8397216796875	322.9620361328125	1630.332275390625	-1198.264770507812	269.5312194824219	1648.575805664062	-1135.262817382812	275.4986572265625	1645.755981445312	-1270.257568359375	119.3885650634766	1440.163818359375	-1205.644653320312	87.033203125	1262.217651367188	-1213.59619140625	87.37857055664062	1227.319702148438	-1235.681030273438	83.41621398925781	1217.387451171875	-1186.284301757812	97.10646057128906	1163.225952148438	-1222.206787109375	111.3503875732422	1110.1748046875	-1220.48193359375	86.74654388427734	1086.322021484375	-1236.028198242188	87.34886169433594	1082.569091796875	-1185.9384765625	79.88748931884766	1023.2861328125	-1216.1513671875	81.20253753662109	961.3192749023439	-1239.2109375	82.62757110595703	957.9774780273439	-1187.851928710938	58.69773864746094	903.1544189453126	-1216.170288085938	170.9748992919922	684.6801147460939	-1405.010375976562	120.2994689941406	632.1280517578126	-1372.78759765625	166.9070587158203	624.9665527343751	-1390.685668945312	143.1684112548828	328.0383911132814	-1405.477172851562	94.52504730224609	265.6306457519532	-1394.8125	144.0342407226562	266.2345581054689	-1402.109130859375	76.57820892333984	69.07054138183602	-1319.274291992188	293.5764465332031	48.59486389160164	-1332.271484375	242.3065490722656	28.91546630859384	-1431.7216796875	157.4703216552734	697.7718505859376	-1027.372192382812	211.1976013183594	639.8840332031251	-1016.071960449219	164.6388702392578	636.5531005859376	-1033.494750976562	126.8886489868164	345.5785827636719	-1018.432678222656	158.6495819091797	273.6496276855469	-1013.376525878906	112.8325729370117	285.0929565429688	-1028.385498046875	75.86448669433594	62.51905441284187	-1114.670288085938	289.4391784667969	48.12683486938483	-1102.098510742188	237.0309295654297	38.66435623168952	-1002.551513671875	299.6669311523438	1362.086791992188	-1208.328735351562	344.8292236328125	1229.083984375	-1208.33544921875	218.5205688476562	1400.652099609375	-1385.744140625	267.9095153808594	1245.791748046875	-1486.401000976562	273.6981811523438	1184.466186523438	-1509.798950195312	305.0499572753906	1194.950927734375	-1469.241821289062	329.1019592285156	980.5248413085939	-1503.46435546875	291.4592590332031	913.9222412109376	-1524.173706054688	335.5816345214844	918.9742431640626	-1500.641967773438	350.0164794921875	811.0787963867189	-1490.522338867188	338.5852661132812	820.0152587890626	-1413.457885742188	227.9514617919922	1399.23876953125	-1034.771850585938	255.5157775878906	1241.944091796875	-939.6062011718749	287.807861328125	1184.114868164062	-946.5446166992186	245.1360778808594	1180.678588867188	-915.5467529296874	301.743408203125	959.2821044921875	-924.5449218749999	360.8851928710938	908.1655883789064	-938.6315307617188	312.4378967285156	897.6690063476564	-932.1004638671875	349.1291809082031	813.6618652343751	-950.632568359375	345.0593872070312	811.1826782226564	-1029.23681640625	
1131	5.65	1214.241821289062	39.25617599487319	-2269.239990234375	1226.85595703125	29.81885147094728	-248.839111328125	323.0945434570312	1630.30029296875	-1198.28955078125	269.6711730957031	1648.57568359375	-1135.282958984375	275.6378479003906	1645.752319335938	-1270.2890625	119.4540710449219	1440.219970703125	-1205.650268554688	87.02989196777344	1262.283203125	-1213.586669921875	87.35642242431641	1227.382446289062	-1235.670654296875	83.39045715332031	1217.455688476562	-1186.271484375	97.06179046630859	1163.287109375	-1222.192626953125	111.2835922241211	1110.22021484375	-1220.45751953125	86.64951324462891	1086.3603515625	-1235.993041992188	87.27725219726562	1082.622314453125	-1185.907958984375	79.80075073242188	1023.336120605469	-1216.106323242188	81.10494995117188	961.3166503906251	-1239.171508789062	82.53496551513672	957.9760742187501	-1187.81787109375	58.60944747924805	903.1403198242189	-1216.13232421875	170.9096984863281	684.6867065429689	-1405.012451171875	120.2107925415039	632.1025390625001	-1372.881225585938	166.8544921875	624.9647827148439	-1390.695678710938	143.2053375244141	328.0329895019532	-1405.494262695312	94.56043243408203	265.6235351562501	-1394.841552734375	144.0692291259766	266.2303466796876	-1402.120971679688	76.57846832275391	69.07788848876962	-1319.274291992188	293.5790710449219	48.59379196167	-1332.261596679688	242.3036041259766	28.92745780944833	-1431.718505859375	157.4672546386719	697.7536621093751	-1027.355346679688	211.2237854003906	639.8901367187501	-1016.058715820312	164.6646118164062	636.5353393554689	-1033.479248046875	126.9658203125	345.5721740722657	-1018.426452636719	158.7156677246094	273.6372680664063	-1013.375	112.8959426879883	285.0885620117188	-1028.38330078125	75.87172698974609	62.53428649902351	-1114.681030273438	289.4437561035156	48.12352752685553	-1102.103515625	237.0350341796875	38.667221069336	-1002.553466796875	299.6927185058594	1362.077514648438	-1208.34912109375	344.8064270019531	1229.072631835938	-1208.345581054688	218.5399780273438	1400.648315429688	-1385.761474609375	267.8815612792969	1245.752319335938	-1486.39501953125	273.7757873535156	1184.443969726562	-1509.970458984375	305.0297241210938	1194.912475585938	-1469.214721679688	329.0065612792969	980.4725341796876	-1503.42822265625	291.3484191894531	913.8752441406251	-1524.114013671875	335.4760437011719	918.9335327148439	-1500.605346679688	349.8861694335938	811.0246582031251	-1490.463134765625	338.49755859375	819.9786376953126	-1413.366943359375	228.0207977294922	1399.272583007812	-1034.784057617188	255.5587158203125	1241.973022460938	-939.6073608398436	287.8456420898438	1184.138793945312	-946.5282592773436	245.1734008789062	1180.717895507812	-915.5490112304686	301.6987609863281	959.2946166992188	-924.5460815429686	360.8371887207031	908.1901245117189	-938.6539306640625	312.3747253417969	897.6783447265626	-932.103271484375	349.0312805175781	813.6574707031251	-950.6425170898438	344.9414367675781	811.1751098632814	-1029.241333007812	
